<svg xmlns="http://www.w3.org/2000/svg" viewBox="0 0 64 64">
  <defs>
    <linearGradient id="g" x1="0%" y1="0%" x2="100%" y2="100%">
      <stop offset="0%" stop-color="#7c3aed"/>
      <stop offset="100%" stop-color="#a855f7"/>
    </linearGradient>
  </defs>
  <rect width="64" height="64" rx="14" fill="url(#g)"/>
  <path fill="#fff" d="M32 14c-8 0-14 5-14 12 0 4 2 7 5 9-3 2-5 5-5 9 0 7 6 12 14 12s14-5 14-12c0-4-2-7-5-9 3-2 5-5 5-9 0-7-6-12-14-12zm-6 12c0-3 3-6 6-6s6 3 6 6-3 6-6 6-6-3-6-6zm12 18c0 3-3 6-6 6s-6-3-6-6 3-6 6-6 6 3 6 6z"/>
</svg>
